{
  "accessors": [
    {
      "name": "RetroRacer_1_0_positions",
      "componentType": 5126,
      "count": 7941,
      "min": [
        -0.3965570032596588,
        -0.08680400252342224,
        -0.871874988079071
      ],
      "max": [
        0.39650601148605347,
        0.249890998005867,
        -0.48412400484085083
      ],
      "type": "VEC3",
      "bufferView": 0,
      "byteOffset": 0
    },
    {
      "name": "RetroRacer_1_0_texcoords",
      "componentType": 5126,
      "count": 7941,
      "min": [
        0.007391999941319227,
        0.06476300209760666
      ],
      "max": [
        0.9883840084075928,
        0.959007978439331
      ],
      "type": "VEC2",
      "bufferView": 1,
      "byteOffset": 0
    },
    {
      "name": "RetroRacer_1_0_indices",
      "componentType": 5123,
      "count": 38400,
      "min": [
        0
      ],
      "max": [
        7940
      ],
      "type": "SCALAR",
      "bufferView": 2,
      "byteOffset": 0
    },
    {
      "name": "RetroRacer_1_1_positions",
      "componentType": 5126,
      "count": 1778,
      "min": [
        -0.3389520049095154,
        0.19162200391292572,
        -0.832643985748291
      ],
      "max": [
        0.33892300724983215,
        0.21419699490070343,
        -0.6609659790992737
      ],
      "type": "VEC3",
      "bufferView": 0,
      "byteOffset": 95292
    },
    {
      "name": "RetroRacer_1_1_texcoords",
      "componentType": 5126,
      "count": 1778,
      "min": [
        0.02323099970817566,
        0.02878599986433983
      ],
      "max": [
        0.9767680168151855,
        0.944271981716156
      ],
      "type": "VEC2",
      "bufferView": 1,
      "byteOffset": 63528
    },
    {
      "name": "RetroRacer_1_1_indices",
      "componentType": 5123,
      "count": 9216,
      "min": [
        0
      ],
      "max": [
        1777
      ],
      "type": "SCALAR",
      "bufferView": 2,
      "byteOffset": 76800
    },
    {
      "name": "RetroRacer_1_2_positions",
      "componentType": 5126,
      "count": 1020,
      "min": [
        -0.4324670135974884,
        -0.24222099781036377,
        -0.8352190256118774
      ],
      "max": [
        0.43209099769592285,
        -0.031156999990344048,
        0.8461300134658813
      ],
      "type": "VEC3",
      "bufferView": 0,
      "byteOffset": 116628
    },
    {
      "name": "RetroRacer_1_2_texcoords",
      "componentType": 5126,
      "count": 1020,
      "min": [
        0.029566999524831772,
        0.013186000287532806
      ],
      "max": [
        0.9545930027961731,
        0.9883300065994263
      ],
      "type": "VEC2",
      "bufferView": 1,
      "byteOffset": 77752
    },
    {
      "name": "RetroRacer_1_2_indices",
      "componentType": 5123,
      "count": 2832,
      "min": [
        0
      ],
      "max": [
        1019
      ],
      "type": "SCALAR",
      "bufferView": 2,
      "byteOffset": 95232
    },
    {
      "name": "RetroRacer_1_3_positions",
      "componentType": 5126,
      "count": 4180,
      "min": [
        -0.43961000442504883,
        -0.24475599825382233,
        -0.8354039788246155
      ],
      "max": [
        0.4397749900817871,
        -0.02897600084543228,
        0.871874988079071
      ],
      "type": "VEC3",
      "bufferView": 0,
      "byteOffset": 128868
    },
    {
      "name": "RetroRacer_1_3_texcoords",
      "componentType": 5126,
      "count": 4180,
      "min": [
        0.013728000223636627,
        0.0063390000723302364
      ],
      "max": [
        0.9852160215377808,
        0.9920759797096252
      ],
      "type": "VEC2",
      "bufferView": 1,
      "byteOffset": 85912
    },
    {
      "name": "RetroRacer_1_3_indices",
      "componentType": 5123,
      "count": 16626,
      "min": [
        0
      ],
      "max": [
        4179
      ],
      "type": "SCALAR",
      "bufferView": 2,
      "byteOffset": 100896
    },
    {
      "name": "RetroRacer_1_4_positions",
      "componentType": 5126,
      "count": 4371,
      "min": [
        -0.4881730079650879,
        -0.23825199902057648,
        -0.804777979850769
      ],
      "max": [
        0.48799100518226624,
        0.1466909945011139,
        0.5511839985847473
      ],
      "type": "VEC3",
      "bufferView": 0,
      "byteOffset": 179028
    },
    {
      "name": "RetroRacer_1_4_texcoords",
      "componentType": 5126,
      "count": 4371,
      "min": [
        0.005280000157654285,
        0.014263000339269638
      ],
      "max": [
        0.9894400238990784,
        0.9857370257377625
      ],
      "type": "VEC2",
      "bufferView": 1,
      "byteOffset": 119352
    },
    {
      "name": "RetroRacer_1_4_indices",
      "componentType": 5123,
      "count": 19920,
      "min": [
        0
      ],
      "max": [
        4370
      ],
      "type": "SCALAR",
      "bufferView": 2,
      "byteOffset": 134148
    },
    {
      "name": "RetroRacer_1_5_positions",
      "componentType": 5126,
      "count": 497,
      "min": [
        -0.28591400384902954,
        -0.05274499952793121,
        0.09798499941825867
      ],
      "max": [
        0.28591498732566833,
        0.171082004904747,
        0.4378489851951599
      ],
      "type": "VEC3",
      "bufferView": 0,
      "byteOffset": 231480
    },
    {
      "name": "RetroRacer_1_5_texcoords",
      "componentType": 5126,
      "count": 497,
      "min": [
        0.011615999974310398,
        0.010851999744772911
      ],
      "max": [
        0.9883840084075928,
        0.9891480207443237
      ],
      "type": "VEC2",
      "bufferView": 1,
      "byteOffset": 154320
    },
    {
      "name": "RetroRacer_1_5_indices",
      "componentType": 5123,
      "count": 1989,
      "min": [
        0
      ],
      "max": [
        496
      ],
      "type": "SCALAR",
      "bufferView": 2,
      "byteOffset": 173988
    },
    {
      "name": "RetroRacer_1_6_positions",
      "componentType": 5126,
      "count": 3458,
      "min": [
        -0.4922949969768524,
        -0.21497400104999542,
        -0.8301060199737549
      ],
      "max": [
        0.49211299419403076,
        0.18990899622440338,
        0.4529060125350952
      ],
      "type": "VEC3",
      "bufferView": 0,
      "byteOffset": 237444
    },
    {
      "name": "RetroRacer_1_6_texcoords",
      "componentType": 5126,
      "count": 3458,
      "min": [
        0.005280000157654285,
        0.011092999950051308
      ],
      "max": [
        0.9809929728507996,
        0.9968299865722656
      ],
      "type": "VEC2",
      "bufferView": 1,
      "byteOffset": 158296
    },
    {
      "name": "RetroRacer_1_6_indices",
      "componentType": 5123,
      "count": 12216,
      "min": [
        0
      ],
      "max": [
        3457
      ],
      "type": "SCALAR",
      "bufferView": 2,
      "byteOffset": 177968
    },
    {
      "name": "RetroRacer_1_7_positions",
      "componentType": 5126,
      "count": 3814,
      "min": [
        -0.6665019989013672,
        -0.14842499792575836,
        -0.8108469843864441
      ],
      "max": [
        0.6665019989013672,
        -0.12530699372291565,
        -0.5446180105209351
      ],
      "type": "VEC3",
      "bufferView": 0,
      "byteOffset": 278940
    },
    {
      "name": "RetroRacer_1_7_texcoords",
      "componentType": 5126,
      "count": 3814,
      "min": [
        0.08553300052881241,
        0.02414100058376789
      ],
      "max": [
        0.8848999738693237,
        0.9774439930915833
      ],
      "type": "VEC2",
      "bufferView": 1,
      "byteOffset": 185960
    },
    {
      "name": "RetroRacer_1_7_indices",
      "componentType": 5123,
      "count": 18432,
      "min": [
        0
      ],
      "max": [
        3813
      ],
      "type": "SCALAR",
      "bufferView": 2,
      "byteOffset": 202400
    },
    {
      "name": "RetroRacer_1_8_positions",
      "componentType": 5126,
      "count": 242,
      "min": [
        -0.17826400697231293,
        -0.249890998005867,
        -0.8514019846916199
      ],
      "max": [
        0.17826400697231293,
        -0.023840000852942467,
        -0.523127019405365
      ],
      "type": "VEC3",
      "bufferView": 0,
      "byteOffset": 324708
    },
    {
      "name": "RetroRacer_1_8_texcoords",
      "componentType": 5126,
      "count": 242,
      "min": [
        0.15100300312042236,
        0.014863000251352787
      ],
      "max": [
        0.8215410113334656,
        0.985135018825531
      ],
      "type": "VEC2",
      "bufferView": 1,
      "byteOffset": 216472
    },
    {
      "name": "RetroRacer_1_8_indices",
      "componentType": 5123,
      "count": 564,
      "min": [
        0
      ],
      "max": [
        241
      ],
      "type": "SCALAR",
      "bufferView": 2,
      "byteOffset": 239264
    },
    {
      "name": "RetroRacer_1_9_positions",
      "componentType": 5126,
      "count": 4827,
      "min": [
        -0.14187200367450714,
        -0.23355799913406372,
        -0.8453660011291504
      ],
      "max": [
        0.14187200367450714,
        -0.11832699924707413,
        -0.8079090118408203
      ],
      "type": "VEC3",
      "bufferView": 0,
      "byteOffset": 327612
    },
    {
      "name": "RetroRacer_1_9_texcoords",
      "componentType": 5126,
      "count": 4827,
      "min": [
        0.10031700134277344,
        0.007482000160962343
      ],
      "max": [
        0.8669480085372925,
        0.9925180077552795
      ],
      "type": "VEC2",
      "bufferView": 1,
      "byteOffset": 218408
    },
    {
      "name": "RetroRacer_1_9_indices",
      "componentType": 5123,
      "count": 18528,
      "min": [
        0
      ],
      "max": [
        4826
      ],
      "type": "SCALAR",
      "bufferView": 2,
      "byteOffset": 240392
    },
    {
      "name": "RetroRacer_1_10_positions",
      "componentType": 5126,
      "count": 24,
      "min": [
        -0.15562300384044647,
        -0.10255800187587738,
        -0.8449730277061462
      ],
      "max": [
        0.15562300384044647,
        -0.04048600047826767,
        -0.7719489932060242
      ],
      "type": "VEC3",
      "bufferView": 0,
      "byteOffset": 385536
    },
    {
      "name": "RetroRacer_1_10_texcoords",
      "componentType": 5126,
      "count": 24,
      "min": [
        0.08764500170946121,
        0.011092999950051308
      ],
      "max": [
        0.9567049741744995,
        0.9746429920196533
      ],
      "type": "VEC2",
      "bufferView": 1,
      "byteOffset": 257024
    },
    {
      "name": "RetroRacer_1_10_indices",
      "componentType": 5123,
      "count": 36,
      "min": [
        0
      ],
      "max": [
        23
      ],
      "type": "SCALAR",
      "bufferView": 2,
      "byteOffset": 277448
    },
    {
      "name": "RetroRacer_1_11_positions",
      "componentType": 5126,
      "count": 912,
      "min": [
        -0.37854599952697754,
        -0.2168949991464615,
        -0.8343390226364136
      ],
      "max": [
        0.3788430094718933,
        -0.05683699995279312,
        0.8544359803199768
      ],
      "type": "VEC3",
      "bufferView": 0,
      "byteOffset": 385824
    },
    {
      "name": "RetroRacer_1_11_texcoords",
      "componentType": 5126,
      "count": 912,
      "min": [
        0.007391999941319227,
        0.015154999680817127
      ],
      "max": [
        0.9894390106201172,
        0.8548910021781921
      ],
      "type": "VEC2",
      "bufferView": 1,
      "byteOffset": 257216
    },
    {
      "name": "RetroRacer_1_11_indices",
      "componentType": 5123,
      "count": 2352,
      "min": [
        0
      ],
      "max": [
        911
      ],
      "type": "SCALAR",
      "bufferView": 2,
      "byteOffset": 277520
    },
    {
      "name": "RetroRacer_1_12_positions",
      "componentType": 5126,
      "count": 8480,
      "min": [
        -0.3200719952583313,
        -0.21964000165462494,
        -0.5208860039710999
      ],
      "max": [
        0.3200719952583313,
        0.04157000035047531,
        0.5208860039710999
      ],
      "type": "VEC3",
      "bufferView": 0,
      "byteOffset": 396768
    },
    {
      "name": "RetroRacer_1_12_texcoords",
      "componentType": 5126,
      "count": 8480,
      "min": [
        0.008448000065982342,
        0.012678000144660473
      ],
      "max": [
        0.9947199821472168,
        0.9857370257377625
      ],
      "type": "VEC2",
      "bufferView": 1,
      "byteOffset": 264512
    },
    {
      "name": "RetroRacer_1_12_indices",
      "componentType": 5123,
      "count": 22890,
      "min": [
        0
      ],
      "max": [
        8479
      ],
      "type": "SCALAR",
      "bufferView": 2,
      "byteOffset": 282224
    }
  ],
  "asset": {
    "generator": "obj2gltf",
    "version": "2.0"
  },
  "buffers": [
    {
      "name": "RetroRacerRed",
      "byteLength": 1404084,
      "uri": "data:application/octet-stream;base64,"
    }
  ],
  "bufferViews": [
    {
      "name": "bufferView_0",
      "buffer": 0,
      "byteLength": 498528,
      "byteOffset": 0,
      "byteStride": 12,
      "target": 34962
    },
    {
      "name": "bufferView_1",
      "buffer": 0,
      "byteLength": 332352,
      "byteOffset": 498528,
      "byteStride": 8,
      "target": 34962
    },
    {
      "name": "bufferView_2",
      "buffer": 0,
      "byteLength": 328004,
      "byteOffset": 830880,
      "target": 34963
    },
    {
      "buffer": 0,
      "byteOffset": 1158884,
      "byteLength": 155056
    },
    {
      "buffer": 0,
      "byteOffset": 1313940,
      "byteLength": 6849
    },
    {
      "buffer": 0,
      "byteOffset": 1320789,
      "byteLength": 18253
    },
    {
      "buffer": 0,
      "byteOffset": 1339042,
      "byteLength": 65039
    }
  ],
  "images": [
    {
      "name": "RRInterior1",
      "mimeType": "image/jpeg",
      "bufferView": 3
    },
    {
      "name": "RRNumberPlate",
      "mimeType": "image/jpeg",
      "bufferView": 4
    },
    {
      "name": "RRLights",
      "mimeType": "image/jpeg",
      "bufferView": 5
    },
    {
      "name": "RRInterior2",
      "mimeType": "image/jpeg",
      "bufferView": 6
    }
  ],
  "materials": [
    {
      "name": "RRUpWings",
      "pbrMetallicRoughness": {
        "baseColorFactor": [
          0.784314,
          0.141176,
          0,
          1
        ],
        "metallicFactor": 0,
        "roughnessFactor": 0.999
      },
      "emissiveFactor": [
        0,
        0,
        0
      ],
      "alphaMode": "OPAQUE",
      "doubleSided": false
    },
    {
      "name": "RRTopWing",
      "pbrMetallicRoughness": {
        "baseColorFactor": [
          0.784314,
          0.141176,
          0,
          1
        ],
        "metallicFactor": 0,
        "roughnessFactor": 0.999
      },
      "emissiveFactor": [
        0,
        0,
        0
      ],
      "alphaMode": "OPAQUE",
      "doubleSided": false
    },
    {
      "name": "RRBodyPaint1",
      "pbrMetallicRoughness": {
        "baseColorFactor": [
          0.784314,
          0.141176,
          0,
          1
        ],
        "metallicFactor": 0,
        "roughnessFactor": 0.9
      },
      "emissiveFactor": [
        0,
        0,
        0
      ],
      "alphaMode": "OPAQUE",
      "doubleSided": false
    },
    {
      "name": "RRBodyPaint2",
      "pbrMetallicRoughness": {
        "baseColorFactor": [
          0.784314,
          0.141176,
          0,
          1
        ],
        "metallicFactor": 0,
        "roughnessFactor": 0.999
      },
      "emissiveFactor": [
        0,
        0,
        0
      ],
      "alphaMode": "OPAQUE",
      "doubleSided": false
    },
    {
      "name": "RRInterior1",
      "pbrMetallicRoughness": {
        "baseColorTexture": {
          "index": 0
        },
        "baseColorFactor": [
          1,
          1,
          1,
          1
        ],
        "metallicFactor": 0,
        "roughnessFactor": 0.9
      },
      "emissiveFactor": [
        0,
        0,
        0
      ],
      "alphaMode": "OPAQUE",
      "doubleSided": false
    },
    {
      "name": "RRCanopyGlass",
      "pbrMetallicRoughness": {
        "baseColorFactor": [
          0,
          0.5019,
          0.752941,
          0.339806
        ],
        "metallicFactor": 0,
        "roughnessFactor": 0.9
      },
      "emissiveFactor": [
        0,
        0,
        0
      ],
      "alphaMode": "BLEND",
      "doubleSided": true
    },
    {
      "name": "RRSilver",
      "pbrMetallicRoughness": {
        "baseColorFactor": [
          0.752941,
          0.752941,
          0.752941,
          1
        ],
        "metallicFactor": 0,
        "roughnessFactor": 0.9
      },
      "emissiveFactor": [
        0,
        0,
        0
      ],
      "alphaMode": "OPAQUE",
      "doubleSided": false
    },
    {
      "name": "RRSideWings",
      "pbrMetallicRoughness": {
        "baseColorFactor": [
          0.784314,
          0.141176,
          0,
          1
        ],
        "metallicFactor": 0,
        "roughnessFactor": 0.999
      },
      "emissiveFactor": [
        0,
        0,
        0
      ],
      "alphaMode": "OPAQUE",
      "doubleSided": false
    },
    {
      "name": "RRBodyPaint3",
      "pbrMetallicRoughness": {
        "baseColorFactor": [
          0.752941,
          0.752941,
          0.752941,
          1
        ],
        "metallicFactor": 0,
        "roughnessFactor": 0.999
      },
      "emissiveFactor": [
        0,
        0,
        0
      ],
      "alphaMode": "OPAQUE",
      "doubleSided": false
    },
    {
      "name": "RRWobbler",
      "pbrMetallicRoughness": {
        "baseColorFactor": [
          0,
          0.501915,
          0.752941,
          1
        ],
        "metallicFactor": 0,
        "roughnessFactor": 0.999
      },
      "emissiveFactor": [
        0,
        0,
        0
      ],
      "alphaMode": "OPAQUE",
      "doubleSided": false
    },
    {
      "name": "RRNumberPlate",
      "pbrMetallicRoughness": {
        "baseColorTexture": {
          "index": 1
        },
        "baseColorFactor": [
          1,
          1,
          1,
          1
        ],
        "metallicFactor": 0,
        "roughnessFactor": 0.9
      },
      "emissiveFactor": [
        0,
        0,
        0
      ],
      "alphaMode": "OPAQUE",
      "doubleSided": false
    },
    {
      "name": "RRLights",
      "pbrMetallicRoughness": {
        "baseColorTexture": {
          "index": 2
        },
        "baseColorFactor": [
          1,
          1,
          1,
          1
        ],
        "metallicFactor": 0,
        "roughnessFactor": 0.9
      },
      "emissiveFactor": [
        0,
        0,
        0
      ],
      "alphaMode": "OPAQUE",
      "doubleSided": false
    },
    {
      "name": "RRInterior2",
      "pbrMetallicRoughness": {
        "baseColorTexture": {
          "index": 3
        },
        "baseColorFactor": [
          1,
          1,
          1,
          1
        ],
        "metallicFactor": 0,
        "roughnessFactor": 0.9
      },
      "emissiveFactor": [
        0,
        0,
        0
      ],
      "alphaMode": "OPAQUE",
      "doubleSided": false
    }
  ],
  "meshes": [
    {
      "name": "RetroRacer_1",
      "primitives": [
        {
          "attributes": {
            "POSITION": 0,
            "TEXCOORD_0": 1
          },
          "indices": 2,
          "material": 0,
          "mode": 4
        },
        {
          "attributes": {
            "POSITION": 3,
            "TEXCOORD_0": 4
          },
          "indices": 5,
          "material": 1,
          "mode": 4
        },
        {
          "attributes": {
            "POSITION": 6,
            "TEXCOORD_0": 7
          },
          "indices": 8,
          "material": 2,
          "mode": 4
        },
        {
          "attributes": {
            "POSITION": 9,
            "TEXCOORD_0": 10
          },
          "indices": 11,
          "material": 3,
          "mode": 4
        },
        {
          "attributes": {
            "POSITION": 12,
            "TEXCOORD_0": 13
          },
          "indices": 14,
          "material": 4,
          "mode": 4
        },
        {
          "attributes": {
            "POSITION": 15,
            "TEXCOORD_0": 16
          },
          "indices": 17,
          "material": 5,
          "mode": 4
        },
        {
          "attributes": {
            "POSITION": 18,
            "TEXCOORD_0": 19
          },
          "indices": 20,
          "material": 6,
          "mode": 4
        },
        {
          "attributes": {
            "POSITION": 21,
            "TEXCOORD_0": 22
          },
          "indices": 23,
          "material": 7,
          "mode": 4
        },
        {
          "attributes": {
            "POSITION": 24,
            "TEXCOORD_0": 25
          },
          "indices": 26,
          "material": 8,
          "mode": 4
        },
        {
          "attributes": {
            "POSITION": 27,
            "TEXCOORD_0": 28
          },
          "indices": 29,
          "material": 9,
          "mode": 4
        },
        {
          "attributes": {
            "POSITION": 30,
            "TEXCOORD_0": 31
          },
          "indices": 32,
          "material": 10,
          "mode": 4
        },
        {
          "attributes": {
            "POSITION": 33,
            "TEXCOORD_0": 34
          },
          "indices": 35,
          "material": 11,
          "mode": 4
        },
        {
          "attributes": {
            "POSITION": 36,
            "TEXCOORD_0": 37
          },
          "indices": 38,
          "material": 12,
          "mode": 4
        }
      ]
    }
  ],
  "nodes": [
    {
      "name": "RetroRacer",
      "mesh": 0
    }
  ],
  "samplers": [
    {
      "magFilter": 9729,
      "minFilter": 9986,
      "wrapS": 10497,
      "wrapT": 10497
    }
  ],
  "scene": 0,
  "scenes": [
    {
      "nodes": [
        0
      ]
    }
  ],
  "textures": [
    {
      "name": "RRInterior1",
      "sampler": 0,
      "source": 0
    },
    {
      "name": "RRNumberPlate",
      "sampler": 0,
      "source": 1
    },
    {
      "name": "RRLights",
      "sampler": 0,
      "source": 2
    },
    {
      "name": "RRInterior2",
      "sampler": 0,
      "source": 3
    }
  ]
}
